<svg id="color" enable-background="new 0 0 24 24" height="512" viewBox="0 0 24 24" width="512" xmlns="http://www.w3.org/2000/svg"><path d="m12 24-.191-.025c-.099-.026-9.809-2.699-9.809-11.8v-8.001c0-.314.195-.594.489-.703l9.25-3.424c.168-.063.354-.063.521 0l9.25 3.424c.295.109.49.389.49.703v8.001c0 9.102-9.71 11.774-9.809 11.8z" fill="#2196f3"/><path d="m12 0c-.088 0-.177.016-.261.047l-9.25 3.424c-.294.109-.489.389-.489.703v8.001c0 9.102 9.71 11.774 9.809 11.8l.191.025z" fill="#1d83d4"/><g fill="#fafafa"><path d="m11.081 15.981c-.403-.093-.655-.496-.562-.899l1.5-6.5c.093-.405.501-.651.899-.563.403.093.655.496.562.899l-1.5 6.5c-.09.394-.482.657-.899.563z"/><path d="m15.25 15c-.205 0-.409-.084-.558-.248-.277-.308-.252-.782.056-1.06l1.881-1.692-1.881-1.692c-.308-.277-.333-.751-.056-1.06.279-.308.752-.332 1.06-.056l2.5 2.25c.158.143.248.346.248.558s-.09.415-.248.558l-2.5 2.25c-.144.129-.323.192-.502.192z"/><path d="m8.75 15c-.179 0-.358-.063-.502-.192l-2.5-2.25c-.158-.143-.248-.346-.248-.558s.09-.415.248-.558l2.5-2.25c.309-.277.781-.252 1.06.056.277.308.252.782-.056 1.06l-1.881 1.692 1.881 1.692c.308.277.333.751.056 1.06-.149.164-.353.248-.558.248z"/></g><path d="m12.769 12h-1.539l-.711 3.082c-.094.403.158.806.562.899.057.013.114.019.17.019.349 0 .651-.242.73-.582z" fill="#dadada"/><path d="m18.5 12h-1.871l-1.881 1.692c-.308.277-.333.751-.056 1.06.149.164.353.248.558.248.179 0 .358-.063.502-.192l2.5-2.25c.158-.143.248-.346.248-.558z" fill="#dadada"/><path d="m7.371 12h-1.871c0 .212.09.415.248.558l2.5 2.25c.144.129.323.192.502.192.205 0 .409-.084.558-.248.277-.308.252-.782-.056-1.06z" fill="#dadada"/></svg>